# Exported from ProBuilder
# http://www.procore3d.com/probuilder
# 3/16/2018 9:18:06 PM

mtllib ./Bench.mtl
o Bench

g Bench
v -1.246 0.4546634 0
v -0.826 0.4546633 0
v -0.826 0.4546633 0
v -0.8260001 -0.4546634 0
v -0.8260001 -0.4546634 0
v -1.246 0.4546634 0
v -1.08523 0.4546634 -0.6000004
v -0.7214998 0.4546633 -0.3900003
v -0.7214998 0.4546633 -0.3900003
v -0.7214999 -0.4546634 -0.3900003
v -0.7214999 -0.4546634 -0.3900003
v -1.08523 0.4546634 -0.6000004
v -1.08523 0.4546634 -0.6000004
v -0.7214998 0.4546633 -0.3900003
v -0.7214998 0.4546633 -0.3900003
v -0.7214999 -0.4546634 -0.3900003
v -0.7214999 -0.4546634 -0.3900003
v -1.08523 0.4546634 -0.6000004
v -0.646 0.4546634 -1.03923
v -0.436 0.4546633 -0.6754999
v -0.436 0.4546633 -0.6754999
v -0.436 -0.4546634 -0.6754999
v -0.436 -0.4546634 -0.6754999
v -0.646 0.4546634 -1.03923
v -0.646 0.4546634 -1.03923
v -0.436 0.4546633 -0.6754999
v -0.436 0.4546633 -0.6754999
v -0.436 -0.4546634 -0.6754999
v -0.436 -0.4546634 -0.6754999
v -0.646 0.4546634 -1.03923
v -0.04600012 0.4546634 -1.2
v -0.046 0.4546633 -0.7799997
v -0.046 0.4546633 -0.7799997
v -0.046 -0.4546634 -0.7799997
v -0.046 -0.4546634 -0.7799997
v -0.04600012 0.4546634 -1.2
v -0.04600012 0.4546634 -1.2
v -0.046 0.4546633 -0.7799997
v -0.046 0.4546633 -0.7799997
v -0.046 -0.4546634 -0.7799997
v -0.046 -0.4546634 -0.7799997
v -0.04600012 0.4546634 -1.2
v 0.5540001 0.4546634 -1.03923
v 0.344 0.4546633 -0.6754999
v 0.344 0.4546633 -0.6754999
v 0.3440001 -0.4546634 -0.6754999
v 0.3440001 -0.4546634 -0.6754999
v 0.5540001 0.4546634 -1.03923
v 0.5540001 0.4546634 -1.03923
v 0.344 0.4546633 -0.6754999
v 0.344 0.4546633 -0.6754999
v 0.3440001 -0.4546634 -0.6754999
v 0.3440001 -0.4546634 -0.6754999
v 0.5540001 0.4546634 -1.03923
v 0.9932303 0.4546634 -0.6000004
v 0.6294997 0.4546633 -0.3900003
v 0.6294997 0.4546633 -0.3900003
v 0.6294997 -0.4546634 -0.3900003
v 0.6294997 -0.4546634 -0.3900003
v 0.9932303 0.4546634 -0.6000004
v 0.9932303 0.4546634 -0.6000004
v 0.6294997 0.4546633 -0.3900003
v 0.6294997 0.4546633 -0.3900003
v 0.6294997 -0.4546634 -0.3900003
v 0.6294997 -0.4546634 -0.3900003
v 0.9932303 0.4546634 -0.6000004
v 1.154 0.4546634 0
v 0.7339998 0.4546633 0
v 0.7339998 0.4546633 0
v 0.7339998 -0.4546634 0
v 0.7339998 -0.4546634 0
v 1.154 0.4546634 0
v 1.154 0.4546634 0
v 0.7339998 0.4546633 0
v 0.7339998 0.4546633 0
v 0.7339998 -0.4546634 0
v 0.7339998 -0.4546634 0
v 1.154 0.4546634 0
v 0.9932303 0.4546634 0.6000004
v 0.6294997 0.4546633 0.3900003
v 0.6294997 0.4546633 0.3900003
v 0.6294997 -0.4546634 0.3900003
v 0.6294997 -0.4546634 0.3900003
v 0.9932303 0.4546634 0.6000004
v 0.9932303 0.4546634 0.6000004
v 0.6294997 0.4546633 0.3900003
v 0.6294997 0.4546633 0.3900003
v 0.6294997 -0.4546634 0.3900003
v 0.6294997 -0.4546634 0.3900003
v 0.9932303 0.4546634 0.6000004
v 0.554 0.4546634 1.03923
v 0.344 0.4546633 0.6754999
v 0.344 0.4546633 0.6754999
v 0.344 -0.4546634 0.6754999
v 0.344 -0.4546634 0.6754999
v 0.554 0.4546634 1.03923
v 0.554 0.4546634 1.03923
v 0.344 0.4546633 0.6754999
v 0.344 0.4546633 0.6754999
v 0.344 -0.4546634 0.6754999
v 0.344 -0.4546634 0.6754999
v 0.554 0.4546634 1.03923
v -0.04600012 0.4546634 1.2
v -0.046 0.4546633 0.7799997
v -0.046 0.4546633 0.7799997
v -0.046 -0.4546634 0.7799997
v -0.046 -0.4546634 0.7799997
v -0.04600012 0.4546634 1.2
v -0.04600012 0.4546634 1.2
v -0.046 0.4546633 0.7799997
v -0.046 0.4546633 0.7799997
v -0.046 -0.4546634 0.7799997
v -0.046 -0.4546634 0.7799997
v -0.04600012 0.4546634 1.2
v -0.6459999 0.4546634 1.03923
v -0.4359999 0.4546633 0.6754999
v -0.4359999 0.4546633 0.6754999
v -0.436 -0.4546634 0.6754999
v -0.436 -0.4546634 0.6754999
v -0.6459999 0.4546634 1.03923
v -0.6459999 0.4546634 1.03923
v -0.4359999 0.4546633 0.6754999
v -0.4359999 0.4546633 0.6754999
v -0.436 -0.4546634 0.6754999
v -0.436 -0.4546634 0.6754999
v -0.6459999 0.4546634 1.03923
v -1.08523 0.4546634 0.6000004
v -0.7214997 0.4546633 0.3900003
v -0.7214997 0.4546633 0.3900003
v -0.7214998 -0.4546634 0.3900003
v -0.7214998 -0.4546634 0.3900003
v -1.08523 0.4546634 0.6000004
v -1.08523 0.4546634 0.6000004
v -0.7214997 0.4546633 0.3900003
v -0.7214997 0.4546633 0.3900003
v -0.7214998 -0.4546634 0.3900003
v -0.7214998 -0.4546634 0.3900003
v -1.08523 0.4546634 0.6000004
v -1.246 0.4546634 0
v -0.826 0.4546633 0
v -0.826 0.4546633 0
v -0.8260001 -0.4546634 0
v -0.8260001 -0.4546634 0
v -1.246 0.4546634 0

vn 1.419158E-07 1.5 3.80262E-08
vn 1.419158E-07 1.5 3.802619E-08
vn 0.9659258 -2.109472E-07 0.2588189
vn 0.9659258 -2.849158E-07 0.258819
vn -0.8027542 -0.8342464 -0.2150972
vn -0.8027543 -0.8342465 -0.2150973
vn 1.419158E-07 1.5 3.802622E-08
vn 1.419158E-07 1.5 3.80262E-08
vn 0.9659258 -1.369786E-07 0.2588188
vn 0.9659258 -2.109472E-07 0.2588189
vn -0.8027543 -0.8342465 -0.2150973
vn -0.8027542 -0.8342464 -0.2150972
vn 1.038896E-07 1.5 1.038897E-07
vn 1.038895E-07 1.5 1.038896E-07
vn 0.7071065 -5.214318E-08 0.7071071
vn 0.7071064 -1.042863E-07 0.7071071
vn -0.5876566 -0.8342465 -0.5876573
vn -0.5876566 -0.8342464 -0.5876572
vn 1.038896E-07 1.5 1.038897E-07
vn 1.038896E-07 1.5 1.038897E-07
vn 0.7071065 0 0.7071071
vn 0.7071065 -5.214318E-08 0.7071071
vn -0.5876566 -0.8342464 -0.5876572
vn -0.5876566 -0.8342465 -0.5876573
vn 3.802618E-08 1.5 1.419159E-07
vn 3.802614E-08 1.5 1.41916E-07
vn 0.2588182 0 0.9659261
vn 0.2588182 0 0.9659261
vn -0.2150971 -0.8342465 -0.8027543
vn -0.2150974 -0.8342462 -0.8027544
vn 3.802621E-08 1.5 1.419158E-07
vn 3.802618E-08 1.5 1.419159E-07
vn 0.2588182 0 0.9659261
vn 0.2588182 0 0.9659261
vn -0.2150966 -0.8342468 -0.8027542
vn -0.2150971 -0.8342465 -0.8027543
vn -3.802617E-08 1.5 1.419159E-07
vn -3.802609E-08 1.5 1.419158E-07
vn -0.2588181 -4.565958E-08 0.9659261
vn -0.2588181 0 0.9659261
vn 0.215097 -0.8342464 -0.8027543
vn 0.2150972 -0.8342466 -0.8027542
vn -3.802622E-08 1.5 1.419159E-07
vn -3.802617E-08 1.5 1.419159E-07
vn -0.2588182 -9.131918E-08 0.9659261
vn -0.2588181 -4.565958E-08 0.9659261
vn 0.2150966 -0.8342462 -0.8027546
vn 0.215097 -0.8342464 -0.8027543
vn -1.038896E-07 1.5 1.038896E-07
vn -1.038896E-07 1.5 1.038896E-07
vn -0.7071067 -1.042864E-07 0.7071069
vn -0.7071068 -2.085728E-07 0.7071068
vn 0.5876568 -0.8342465 -0.587657
vn 0.5876568 -0.8342464 -0.5876571
vn -1.038896E-07 1.5 1.038896E-07
vn -1.038896E-07 1.5 1.038896E-07
vn -0.7071066 0 0.7071069
vn -0.7071067 -1.042864E-07 0.7071069
vn 0.5876569 -0.8342466 -0.5876569
vn 0.5876568 -0.8342465 -0.587657
vn -1.419158E-07 1.5 3.802622E-08
vn -1.419158E-07 1.5 3.802619E-08
vn -0.9659258 0 0.2588188
vn -0.9659258 0 0.2588188
vn 0.8027541 -0.8342466 -0.2150973
vn 0.8027542 -0.8342466 -0.2150974
vn -1.419158E-07 1.5 3.802623E-08
vn -1.419158E-07 1.5 3.802622E-08
vn -0.9659258 0 0.2588188
vn -0.9659258 0 0.2588188
vn 0.8027542 -0.8342469 -0.2150971
vn 0.8027541 -0.8342466 -0.2150973
vn -1.419158E-07 1.5 -3.802622E-08
vn -1.419157E-07 1.5 -3.802617E-08
vn -0.9659258 0 -0.2588188
vn -0.9659258 0 -0.2588188
vn 0.8027541 -0.8342466 0.2150973
vn 0.8027541 -0.8342469 0.2150974
vn -1.419158E-07 1.5 -3.802624E-08
vn -1.419158E-07 1.5 -3.802622E-08
vn -0.9659258 0 -0.2588188
vn -0.9659258 0 -0.2588188
vn 0.8027543 -0.8342465 0.2150971
vn 0.8027541 -0.8342466 0.2150973
vn -1.038896E-07 1.5 -1.038896E-07
vn -1.038896E-07 1.5 -1.038896E-07
vn -0.7071066 0 -0.7071069
vn -0.7071066 0 -0.7071069
vn 0.5876567 -0.8342464 0.5876571
vn 0.5876566 -0.8342465 0.5876571
vn -1.038896E-07 1.5 -1.038897E-07
vn -1.038896E-07 1.5 -1.038896E-07
vn -0.7071066 0 -0.7071069
vn -0.7071066 0 -0.7071069
vn 0.5876568 -0.8342464 0.587657
vn 0.5876567 -0.8342464 0.5876571
vn -3.802618E-08 1.5 -1.419159E-07
vn -3.802614E-08 1.5 -1.41916E-07
vn -0.2588182 0 -0.9659261
vn -0.2588182 0 -0.9659261
vn 0.215097 -0.8342465 0.8027543
vn 0.2150973 -0.8342463 0.8027544
vn -3.80262E-08 1.5 -1.419158E-07
vn -3.802618E-08 1.5 -1.419159E-07
vn -0.2588182 0 -0.9659261
vn -0.2588182 0 -0.9659261
vn 0.2150966 -0.8342468 0.8027543
vn 0.215097 -0.8342465 0.8027543
vn 3.802619E-08 1.5 -1.419159E-07
vn 3.80261E-08 1.5 -1.419158E-07
vn 0.2588182 -1.14149E-08 -0.9659261
vn 0.2588182 0 -0.9659261
vn -0.2150971 -0.8342464 0.8027544
vn -0.2150973 -0.8342466 0.8027542
vn 3.802625E-08 1.5 -1.419159E-07
vn 3.802619E-08 1.5 -1.419159E-07
vn 0.2588182 -2.28298E-08 -0.965926
vn 0.2588182 -1.14149E-08 -0.9659261
vn -0.2150967 -0.834246 0.8027546
vn -0.2150971 -0.8342464 0.8027544
vn 1.038896E-07 1.5 -1.038897E-07
vn 1.038896E-07 1.5 -1.038897E-07
vn 0.7071065 -9.780277E-08 -0.7071071
vn 0.7071065 -1.042864E-07 -0.7071071
vn -0.5876566 -0.8342463 0.5876572
vn -0.5876566 -0.8342463 0.5876572
vn 1.038896E-07 1.5 -1.038897E-07
vn 1.038896E-07 1.5 -1.038897E-07
vn 0.7071065 -9.131919E-08 -0.7071071
vn 0.7071065 -9.780277E-08 -0.7071071
vn -0.5876567 -0.8342464 0.5876572
vn -0.5876566 -0.8342463 0.5876572
vn 1.419158E-07 1.5 -3.802623E-08
vn 1.419158E-07 1.5 -3.802622E-08
vn 0.9659258 -2.196224E-07 -0.258819
vn 0.9659258 -1.424579E-07 -0.2588191
vn -0.8027542 -0.8342464 0.2150974
vn -0.8027542 -0.8342464 0.2150974
vn 1.419158E-07 1.5 -3.802624E-08
vn 1.419158E-07 1.5 -3.802623E-08
vn 0.9659258 -2.96787E-07 -0.258819
vn 0.9659258 -2.196224E-07 -0.258819
vn -0.8027542 -0.8342464 0.2150974
vn -0.8027542 -0.8342464 0.2150974

vt 1.5 0
vt 0.975 0
vt 0 0.3031089
vt 0 -0.3031089
vt -0.975 0
vt -1.5 0
vt 1.299038 -0.75
vt 0.8443747 -0.4875
vt 0.4875 0.3031089
vt 0.4875 -0.3031089
vt -0.8443748 -0.4875
vt -1.299038 -0.75
vt 1.299038 -0.75
vt 0.8443747 -0.4875
vt -0.8443747 0.3031089
vt -0.8443748 -0.3031089
vt -0.8443748 -0.4875
vt -1.299038 -0.75
vt 0.75 -1.299038
vt 0.4875 -0.8443747
vt -0.4875 0.3031089
vt -0.4875 -0.3031089
vt -0.4875 -0.8443748
vt -0.75 -1.299038
vt 0.75 -1.299038
vt 0.4875 -0.8443747
vt -0.4875 0.3031089
vt -0.4875 -0.3031089
vt -0.4875 -0.8443748
vt -0.75 -1.299038
vt 8.940697E-08 -1.5
vt 5.811453E-08 -0.9749999
vt -5.811453E-08 0.3031089
vt -5.811453E-08 -0.3031089
vt -5.811453E-08 -0.975
vt -8.940697E-08 -1.5
vt 8.940697E-08 -1.5
vt 5.811453E-08 -0.9749999
vt -5.811453E-08 0.3031089
vt -5.811453E-08 -0.3031089
vt -5.811453E-08 -0.975
vt -8.940697E-08 -1.5
vt -0.7500002 -1.299038
vt -0.4875001 -0.8443747
vt 0.4875001 0.3031089
vt 0.4875001 -0.3031089
vt 0.4875001 -0.8443748
vt 0.7500002 -1.299038
vt -0.7500002 -1.299038
vt -0.4875001 -0.8443747
vt -0.8443747 0.3031089
vt -0.8443748 -0.3031089
vt 0.4875001 -0.8443748
vt 0.7500002 -1.299038
vt -1.299038 -0.7500001
vt -0.8443747 -0.4875
vt -0.4875 0.3031089
vt -0.4875001 -0.3031089
vt 0.8443747 -0.4875001
vt 1.299038 -0.7500001
vt -1.299038 -0.7500001
vt -0.8443747 -0.4875
vt -0.4875 0.3031089
vt -0.4875001 -0.3031089
vt 0.8443747 -0.4875001
vt 1.299038 -0.7500001
vt -1.5 1.311342E-07
vt -0.975 8.52372E-08
vt 8.52372E-08 0.3031089
vt 8.523721E-08 -0.3031089
vt 0.975 8.523721E-08
vt 1.5 1.311342E-07
vt -1.5 1.311342E-07
vt -0.975 8.52372E-08
vt 8.52372E-08 0.3031089
vt 8.523721E-08 -0.3031089
vt 0.975 8.523721E-08
vt 1.5 1.311342E-07
vt -1.299038 0.75
vt -0.8443747 0.4875
vt 0.4875 0.3031089
vt 0.4875 -0.3031089
vt 0.8443747 0.4875
vt 1.299038 0.75
vt -1.299038 0.75
vt -0.8443747 0.4875
vt 0.4875 0.3031089
vt 0.4875 -0.3031089
vt 0.8443747 0.4875
vt 1.299038 0.75
vt -0.75 1.299038
vt -0.4875 0.8443748
vt 0.8443748 0.3031089
vt 0.8443749 -0.3031089
vt 0.4875 0.8443749
vt 0.75 1.299038
vt -0.75 1.299038
vt -0.4875 0.8443748
vt -0.4875 0.3031089
vt -0.4875 -0.3031089
vt 0.4875 0.8443749
vt 0.75 1.299038
vt 8.940697E-08 1.5
vt 5.811453E-08 0.9749999
vt 5.811453E-08 0.3031089
vt 5.811453E-08 -0.3031089
vt -5.811453E-08 0.975
vt -8.940697E-08 1.5
vt 8.940697E-08 1.5
vt 5.811453E-08 0.9749999
vt 5.811453E-08 0.3031089
vt 5.811453E-08 -0.3031089
vt -5.811453E-08 0.975
vt -8.940697E-08 1.5
vt 0.7499998 1.299038
vt 0.4874999 0.8443748
vt 0.4874999 0.3031089
vt 0.4874999 -0.3031089
vt -0.4874999 0.8443749
vt -0.7499998 1.299038
vt 0.7499998 1.299038
vt 0.4874999 0.8443748
vt 0.4874999 0.3031089
vt 0.4874999 -0.3031089
vt -0.4874999 0.8443749
vt -0.7499998 1.299038
vt 1.299038 0.7500002
vt 0.8443747 0.4875002
vt 0.8443747 0.3031089
vt 0.8443747 -0.3031089
vt -0.8443747 0.4875002
vt -1.299038 0.7500002
vt 1.299038 0.7500002
vt 0.8443747 0.4875002
vt -0.4875002 0.3031089
vt -0.4875002 -0.3031089
vt -0.8443747 0.4875002
vt -1.299038 0.7500002
vt 1.5 -2.622683E-07
vt 0.975 -1.704744E-07
vt 1.704744E-07 0.3031089
vt 1.704744E-07 -0.3031089
vt -0.975 -1.704744E-07
vt -1.5 -2.622683E-07

g Bench
usemtl Default_Prototype
f 2/2/2 8/8/8 7/7/7 1/1/1
f 4/4/4 10/10/10 9/9/9 3/3/3
f 6/6/6 12/12/12 11/11/11 5/5/5
f 14/14/14 20/20/20 19/19/19 13/13/13
f 16/16/16 22/22/22 21/21/21 15/15/15
f 18/18/18 24/24/24 23/23/23 17/17/17
f 26/26/26 32/32/32 31/31/31 25/25/25
f 28/28/28 34/34/34 33/33/33 27/27/27
f 30/30/30 36/36/36 35/35/35 29/29/29
f 38/38/38 44/44/44 43/43/43 37/37/37
f 40/40/40 46/46/46 45/45/45 39/39/39
f 42/42/42 48/48/48 47/47/47 41/41/41
f 50/50/50 56/56/56 55/55/55 49/49/49
f 52/52/52 58/58/58 57/57/57 51/51/51
f 54/54/54 60/60/60 59/59/59 53/53/53
f 62/62/62 68/68/68 67/67/67 61/61/61
f 64/64/64 70/70/70 69/69/69 63/63/63
f 66/66/66 72/72/72 71/71/71 65/65/65
f 74/74/74 80/80/80 79/79/79 73/73/73
f 76/76/76 82/82/82 81/81/81 75/75/75
f 78/78/78 84/84/84 83/83/83 77/77/77
f 86/86/86 92/92/92 91/91/91 85/85/85
f 88/88/88 94/94/94 93/93/93 87/87/87
f 90/90/90 96/96/96 95/95/95 89/89/89
f 98/98/98 104/104/104 103/103/103 97/97/97
f 100/100/100 106/106/106 105/105/105 99/99/99
f 102/102/102 108/108/108 107/107/107 101/101/101
f 110/110/110 116/116/116 115/115/115 109/109/109
f 112/112/112 118/118/118 117/117/117 111/111/111
f 114/114/114 120/120/120 119/119/119 113/113/113
f 122/122/122 128/128/128 127/127/127 121/121/121
f 124/124/124 130/130/130 129/129/129 123/123/123
f 126/126/126 132/132/132 131/131/131 125/125/125
f 134/134/134 140/140/140 139/139/139 133/133/133
f 136/136/136 142/142/142 141/141/141 135/135/135
f 138/138/138 144/144/144 143/143/143 137/137/137

