# Exported from ProBuilder
# http://www.procore3d.com/probuilder
# 3/16/2018 9:17:57 PM

mtllib ./Plate.mtl
o Plate

g Plate
v -0.246 0.465 -0.9870005
v -0.246 0.475 -0.9870005
v -0.2078034 0.465 -0.8694434
v -0.2078034 0.475 -0.8694434
v -0.2078034 0.465 -0.8694434
v -0.2078034 0.475 -0.8694434
v -0.1078034 0.465 -0.7967892
v -0.1078034 0.475 -0.7967892
v -0.1078034 0.465 -0.7967892
v -0.1078034 0.475 -0.7967892
v 0.01580339 0.465 -0.7967892
v 0.01580339 0.475 -0.7967892
v 0.01580339 0.465 -0.7967892
v 0.01580339 0.475 -0.7967892
v 0.1158034 0.465 -0.8694434
v 0.1158034 0.475 -0.8694434
v 0.1158034 0.465 -0.8694434
v 0.1158034 0.475 -0.8694434
v 0.154 0.465 -0.9870005
v 0.154 0.475 -0.9870005
v 0.154 0.465 -0.9870005
v 0.154 0.475 -0.9870005
v 0.1158034 0.465 -1.104558
v 0.1158034 0.475 -1.104558
v 0.1158034 0.465 -1.104558
v 0.1158034 0.475 -1.104558
v 0.01580342 0.465 -1.177212
v 0.01580342 0.475 -1.177212
v 0.01580342 0.465 -1.177212
v 0.01580342 0.475 -1.177212
v -0.1078034 0.465 -1.177212
v -0.1078034 0.475 -1.177212
v -0.1078034 0.465 -1.177212
v -0.1078034 0.475 -1.177212
v -0.2078034 0.465 -1.104558
v -0.2078034 0.475 -1.104558
v -0.2078034 0.465 -1.104558
v -0.2078034 0.475 -1.104558
v -0.246 0.465 -0.9870005
v -0.246 0.475 -0.9870005
v -0.246 0.465 -0.9870005
v -0.046 0.465 -0.9870005
v -0.2078034 0.465 -0.8694434
v -0.2226994 0.465 -0.9870005
v -0.046 0.465 -0.9870005
v -0.1889529 0.465 -0.8831391
v -0.2078034 0.465 -0.8694434
v -0.046 0.465 -0.9870005
v -0.1078034 0.465 -0.7967892
v -0.1889529 0.465 -0.8831391
v -0.046 0.465 -0.9870005
v -0.1006031 0.465 -0.8189493
v -0.1078034 0.465 -0.7967892
v -0.046 0.465 -0.9870005
v 0.01580339 0.465 -0.7967892
v -0.1006031 0.465 -0.8189493
v -0.046 0.465 -0.9870005
v 0.008603115 0.465 -0.8189493
v 0.01580339 0.465 -0.7967892
v -0.046 0.465 -0.9870005
v 0.1158034 0.465 -0.8694434
v 0.008603115 0.465 -0.8189493
v -0.046 0.465 -0.9870005
v 0.09695286 0.465 -0.8831391
v 0.1158034 0.465 -0.8694434
v -0.046 0.465 -0.9870005
v 0.154 0.465 -0.9870005
v 0.09695286 0.465 -0.8831391
v -0.046 0.465 -0.9870005
v 0.1306994 0.465 -0.9870005
v 0.154 0.465 -0.9870005
v -0.046 0.465 -0.9870005
v 0.1158034 0.465 -1.104558
v 0.1306994 0.465 -0.9870005
v -0.046 0.465 -0.9870005
v 0.09695286 0.465 -1.090862
v 0.1158034 0.465 -1.104558
v -0.046 0.465 -0.9870005
v 0.01580342 0.465 -1.177212
v 0.09695286 0.465 -1.090862
v -0.046 0.465 -0.9870005
v 0.008603144 0.465 -1.155052
v 0.01580342 0.465 -1.177212
v -0.046 0.465 -0.9870005
v -0.1078034 0.465 -1.177212
v 0.008603144 0.465 -1.155052
v -0.046 0.465 -0.9870005
v -0.1006032 0.465 -1.155052
v -0.1078034 0.465 -1.177212
v -0.046 0.465 -0.9870005
v -0.2078034 0.465 -1.104558
v -0.1006032 0.465 -1.155052
v -0.046 0.465 -0.9870005
v -0.1889528 0.465 -1.090862
v -0.2078034 0.465 -1.104558
v -0.046 0.465 -0.9870005
v -0.246 0.465 -0.9870005
v -0.1889528 0.465 -1.090862
v -0.046 0.465 -0.9870005
v -0.2226994 0.465 -0.9870005
v -0.246 0.475 -0.9870005
v -0.2078034 0.475 -1.104558
v -0.2226994 0.465 -0.9870005
v -0.1889528 0.465 -1.090862
v -0.2078034 0.475 -0.8694434
v -0.246 0.475 -0.9870005
v -0.1889529 0.465 -0.8831391
v -0.2226994 0.465 -0.9870005
v -0.2078034 0.475 -1.104558
v -0.1078034 0.475 -1.177212
v -0.1889528 0.465 -1.090862
v -0.1006032 0.465 -1.155052
v -0.1078034 0.475 -1.177212
v 0.01580342 0.475 -1.177212
v -0.1006032 0.465 -1.155052
v 0.008603144 0.465 -1.155052
v 0.01580342 0.475 -1.177212
v 0.1158034 0.475 -1.104558
v 0.008603144 0.465 -1.155052
v 0.09695286 0.465 -1.090862
v 0.1158034 0.475 -1.104558
v 0.154 0.475 -0.9870005
v 0.09695286 0.465 -1.090862
v 0.1306994 0.465 -0.9870005
v 0.154 0.475 -0.9870005
v 0.1158034 0.475 -0.8694434
v 0.1306994 0.465 -0.9870005
v 0.09695286 0.465 -0.8831391
v 0.1158034 0.475 -0.8694434
v 0.01580339 0.475 -0.7967892
v 0.09695286 0.465 -0.8831391
v 0.008603115 0.465 -0.8189493
v 0.01580339 0.475 -0.7967892
v -0.1078034 0.475 -0.7967892
v 0.008603115 0.465 -0.8189493
v -0.1006031 0.465 -0.8189493
v -0.1078034 0.475 -0.7967892
v -0.2078034 0.475 -0.8694434
v -0.1006031 0.465 -0.8189493
v -0.1889529 0.465 -0.8831391

vn -0.9510565 0 -1.490116E-08
vn -0.9510565 0 -1.490116E-08
vn -0.7694209 0 0.5590169
vn -0.7694209 0 0.5590169
vn -0.7694209 0 0.5590169
vn -0.7694209 0 0.5590169
vn -0.2938926 0 0.9045085
vn -0.2938926 0 0.9045085
vn -0.2938926 0 0.9045085
vn -0.2938926 0 0.9045085
vn 0.2938926 0 0.9045085
vn 0.2938926 0 0.9045085
vn 0.2938926 0 0.9045085
vn 0.2938926 0 0.9045085
vn 0.7694209 0 0.5590169
vn 0.7694209 0 0.5590169
vn 0.7694209 0 0.5590169
vn 0.7694209 0 0.5590169
vn 0.9510566 0 -5.960464E-08
vn 0.9510566 0 -5.960464E-08
vn 0.9510566 0 -5.960464E-08
vn 0.9510566 0 -5.960464E-08
vn 0.769421 0 -0.5590171
vn 0.769421 0 -0.5590171
vn 0.769421 0 -0.5590171
vn 0.769421 0 -0.5590171
vn 0.2938927 0 -0.9045085
vn 0.2938927 0 -0.9045085
vn 0.2938927 0 -0.9045085
vn 0.2938927 0 -0.9045085
vn -0.2938927 0 -0.9045085
vn -0.2938927 0 -0.9045085
vn -0.2938927 0 -0.9045085
vn -0.2938927 0 -0.9045085
vn -0.7694209 0 -0.559017
vn -0.7694209 0 -0.559017
vn -0.7694209 0 -0.559017
vn -0.7694209 0 -0.559017
vn -0.9510565 0 -1.490116E-08
vn -0.9510565 0 -1.490116E-08
vn 0 -0.9999999 0
vn 0 -0.9999999 0
vn 0 -0.9999999 0
vn 0 1 0
vn 0 1 0
vn 0 1 0
vn 0 -1 0
vn 0 -1 0
vn 0 -1 0
vn 0 1 0
vn 0 1 0
vn 0 1 0
vn 0 -0.9999999 0
vn 0 -0.9999999 0
vn 0 -0.9999999 0
vn 0 1 0
vn 0 1 0
vn 0 1 0
vn 0 -1 0
vn 0 -1 0
vn 0 -1 0
vn 0 1 0
vn 0 1 0
vn 0 1 0
vn 0 -1 0
vn 0 -1 0
vn 0 -1 0
vn 0 1 0
vn 0 1 0
vn 0 1 0
vn 0 -1 0
vn 0 -1 0
vn 0 -1 0
vn 0 1 0
vn 0 1 0
vn 0 1 0
vn 0 -1 0
vn 0 -1 0
vn 0 -1 0
vn 0 1 0
vn 0 1 0
vn 0 1 0
vn 0 -1 0
vn 0 -1 0
vn 0 -1 0
vn 0 1 0
vn 0 1 0
vn 0 1 0
vn 0 -1 0
vn 0 -1 0
vn 0 -1 0
vn 0 0.9999999 0
vn 0 0.9999999 0
vn 0 0.9999999 0
vn 0 -1 0
vn 0 -1 0
vn 0 -1 0
vn 0 1 0
vn 0 1 0
vn 0 1 0
vn 0.3911882 0.9114912 0.1271048
vn 0.3911881 0.9114912 0.1271047
vn 0.3911882 0.911491 0.1271048
vn 0.3911882 0.9114912 0.1271048
vn 0.3911883 0.9114912 -0.1271048
vn 0.3911883 0.9114911 -0.1271047
vn 0.3911882 0.9114912 -0.1271047
vn 0.3911883 0.9114912 -0.1271048
vn 0.2417675 0.9114913 0.3327645
vn 0.2417675 0.9114913 0.3327644
vn 0.2417676 0.9114913 0.3327646
vn 0.2417675 0.9114913 0.3327645
vn 0 0.9114912 0.4113195
vn 0 0.9114912 0.4113195
vn 0 0.9114912 0.4113196
vn 0 0.9114912 0.4113195
vn -0.2417676 0.9114912 0.3327645
vn -0.2417677 0.9114911 0.3327645
vn -0.2417676 0.9114912 0.3327645
vn -0.2417676 0.9114912 0.3327645
vn -0.3911882 0.9114912 0.1271048
vn -0.3911882 0.9114912 0.1271048
vn -0.3911882 0.9114912 0.1271048
vn -0.3911882 0.9114912 0.1271048
vn -0.3911882 0.9114912 -0.1271047
vn -0.3911883 0.9114912 -0.1271047
vn -0.3911883 0.9114912 -0.1271047
vn -0.3911882 0.9114912 -0.1271047
vn -0.2417676 0.9114912 -0.3327646
vn -0.2417676 0.9114912 -0.3327645
vn -0.2417676 0.9114912 -0.3327646
vn -0.2417676 0.9114912 -0.3327646
vn 0 0.9114912 -0.4113195
vn 0 0.9114913 -0.4113195
vn 0 0.9114913 -0.4113195
vn 0 0.9114912 -0.4113195
vn 0.2417676 0.9114912 -0.3327645
vn 0.2417676 0.9114912 -0.3327646
vn 0.2417675 0.9114912 -0.3327644
vn 0.2417676 0.9114912 -0.3327645

vt -0.06180339 -0.004999995
vt -0.06180339 0.005000005
vt 0.0618034 -0.004999995
vt 0.0618034 0.005000005
vt -0.0618034 -0.004999995
vt -0.0618034 0.005000005
vt 0.06180342 -0.004999995
vt 0.06180342 0.005000005
vt -0.0618034 -0.004999995
vt -0.0618034 0.005000005
vt 0.06180339 -0.004999995
vt 0.06180339 0.005000005
vt -0.06180341 -0.004999995
vt -0.06180341 0.005000005
vt 0.06180342 -0.004999995
vt 0.06180342 0.005000005
vt -0.0618034 -0.004999995
vt -0.0618034 0.005000005
vt 0.0618034 -0.004999995
vt 0.0618034 0.005000005
vt -0.06180339 -0.004999995
vt -0.06180339 0.005000005
vt 0.06180337 -0.004999995
vt 0.06180337 0.005000005
vt -0.0618034 -0.004999995
vt -0.0618034 0.005000005
vt 0.0618034 -0.004999995
vt 0.0618034 0.005000005
vt -0.06180342 -0.004999995
vt -0.06180342 0.005000005
vt 0.06180343 -0.004999995
vt 0.06180343 0.005000005
vt -0.06180339 -0.004999995
vt -0.06180339 0.005000005
vt 0.06180337 -0.004999995
vt 0.06180337 0.005000005
vt -0.06180342 -0.004999995
vt -0.06180342 0.005000005
vt 0.0618034 -0.004999995
vt 0.0618034 0.005000005
vt -0.2 0
vt 0 0
vt -0.1618034 0.117557
vt 0.1766994 -1.157351E-10
vt -1.736027E-10 -1.157351E-10
vt 0.1429529 0.1038613
vt -0.1618034 0.117557
vt 0 0
vt -0.0618034 0.1902113
vt 0.1429529 0.1038613
vt -1.736027E-10 -1.157351E-10
vt 0.05460313 0.1680512
vt -0.0618034 0.1902113
vt 0 0
vt 0.06180339 0.1902113
vt 0.05460313 0.1680512
vt -1.736027E-10 -1.157351E-10
vt -0.05460312 0.1680512
vt 0.06180339 0.1902113
vt 0 0
vt 0.1618034 0.117557
vt -0.05460312 0.1680512
vt -1.736027E-10 -1.157351E-10
vt -0.1429529 0.1038613
vt 0.1618034 0.117557
vt 0 0
vt 0.2 -1.748456E-08
vt -0.1429529 0.1038613
vt -1.736027E-10 -1.157351E-10
vt -0.1766994 -1.556329E-08
vt 0.2 -1.748456E-08
vt 0 0
vt 0.1618034 -0.117557
vt -0.1766994 -1.556329E-08
vt -1.736027E-10 -1.157351E-10
vt -0.1429529 -0.1038613
vt 0.1618034 -0.117557
vt 0 0
vt 0.06180342 -0.1902113
vt -0.1429529 -0.1038613
vt -1.736027E-10 -1.157351E-10
vt -0.05460315 -0.1680511
vt 0.06180342 -0.1902113
vt 0 0
vt -0.06180343 -0.1902113
vt -0.05460315 -0.1680511
vt -1.736027E-10 -1.157351E-10
vt 0.05460315 -0.1680511
vt -0.06180343 -0.1902113
vt 0 0
vt -0.1618034 -0.1175571
vt 0.05460315 -0.1680511
vt -1.736027E-10 -1.157351E-10
vt 0.1429528 -0.1038613
vt -0.1618034 -0.1175571
vt 0 0
vt -0.2 0
vt 0.1429528 -0.1038613
vt -1.736027E-10 -1.157351E-10
vt 0.1766994 -1.157351E-10
vt 0.1857608 0.009441684
vt 0.1506603 -0.1090766
vt 0.160405 0.009441684
vt 0.1293938 -0.09526893
vt 0.1506603 0.1090766
vt 0.1857608 -0.00944168
vt 0.1293938 0.09526892
vt 0.160405 -0.00944168
vt 0.1576772 -0.09866165
vt 0.06101963 -0.1757067
vt 0.136893 -0.08413823
vt 0.05149623 -0.1522073
vt 0.06180343 -0.1754325
vt -0.06180342 -0.1754325
vt 0.05460315 -0.1511206
vt -0.05460315 -0.1511206
vt -0.06101963 -0.1757067
vt -0.1576773 -0.09866162
vt -0.05149623 -0.1522073
vt -0.136893 -0.08413821
vt -0.1506603 -0.1090766
vt -0.1857608 0.009441664
vt -0.1293938 -0.0952689
vt -0.160405 0.009441666
vt -0.1857608 -0.009441698
vt -0.1506603 0.1090766
vt -0.160405 -0.009441696
vt -0.1293938 0.09526891
vt -0.1576773 0.09866162
vt -0.0610196 0.1757067
vt -0.136893 0.08413821
vt -0.0514962 0.1522073
vt -0.06180339 0.1754325
vt 0.0618034 0.1754325
vt -0.05460312 0.1511206
vt 0.05460313 0.1511206
vt 0.0610196 0.1757067
vt 0.1576773 0.09866164
vt 0.05149621 0.1522073
vt 0.136893 0.08413822

g Plate_0
usemtl Default_Prototype
f 3/3/3 4/4/4 2/2/2 1/1/1
f 7/7/7 8/8/8 6/6/6 5/5/5
f 11/11/11 12/12/12 10/10/10 9/9/9
f 15/15/15 16/16/16 14/14/14 13/13/13
f 19/19/19 20/20/20 18/18/18 17/17/17
f 23/23/23 24/24/24 22/22/22 21/21/21
f 27/27/27 28/28/28 26/26/26 25/25/25
f 31/31/31 32/32/32 30/30/30 29/29/29
f 35/35/35 36/36/36 34/34/34 33/33/33
f 39/39/39 40/40/40 38/38/38 37/37/37
f 103/103/103 104/104/104 102/102/102 101/101/101
f 107/107/107 108/108/108 106/106/106 105/105/105
f 111/111/111 112/112/112 110/110/110 109/109/109
f 115/115/115 116/116/116 114/114/114 113/113/113
f 119/119/119 120/120/120 118/118/118 117/117/117
f 123/123/123 124/124/124 122/122/122 121/121/121
f 127/127/127 128/128/128 126/126/126 125/125/125
f 131/131/131 132/132/132 130/130/130 129/129/129
f 135/135/135 136/136/136 134/134/134 133/133/133
f 139/139/139 140/140/140 138/138/138 137/137/137

g Plate_1
usemtl Default_Prototype
f 41/41/41 42/42/42 43/43/43
f 47/47/47 48/48/48 49/49/49
f 53/53/53 54/54/54 55/55/55
f 59/59/59 60/60/60 61/61/61
f 65/65/65 66/66/66 67/67/67
f 71/71/71 72/72/72 73/73/73
f 77/77/77 78/78/78 79/79/79
f 83/83/83 84/84/84 85/85/85
f 89/89/89 90/90/90 91/91/91
f 95/95/95 96/96/96 97/97/97
f 46/46/46 45/45/45 44/44/44
f 52/52/52 51/51/51 50/50/50
f 58/58/58 57/57/57 56/56/56
f 64/64/64 63/63/63 62/62/62
f 70/70/70 69/69/69 68/68/68
f 76/76/76 75/75/75 74/74/74
f 82/82/82 81/81/81 80/80/80
f 88/88/88 87/87/87 86/86/86
f 94/94/94 93/93/93 92/92/92
f 100/100/100 99/99/99 98/98/98

