# Exported from ProBuilder
# http://www.procore3d.com/probuilder
# 3/16/2018 9:17:53 PM

mtllib ./Spatula.mtl
o Spatula

g Spatula
v -1.111894 0.4548654 0.01819024
v -0.9225102 0.4586 -0.09115196
v -1.109653 0.4645247 0.01689613
v -0.9225102 0.4686 -0.09115196
v -0.9225102 0.4586 -0.09115196
v -0.9141228 0.4586 -0.07662473
v -0.9225102 0.4686 -0.09115196
v -0.9141228 0.4686 -0.07662473
v -0.9141228 0.4586 -0.07662473
v -1.103507 0.4548654 0.03271747
v -0.9141228 0.4686 -0.07662473
v -1.101266 0.4645247 0.03142336
v -1.155184 0.4651979 0.08173655
v -1.180185 0.4651979 0.03843538
v -1.152781 0.4663254 0.08034907
v -1.177781 0.4663254 0.03704791
v -1.109653 0.4645247 0.01689613
v -0.9225102 0.4686 -0.09115196
v -1.101266 0.4645247 0.03142336
v -0.9141228 0.4686 -0.07662473
v -1.103507 0.4548654 0.03271747
v -0.9141228 0.4586 -0.07662473
v -1.111894 0.4548654 0.01819024
v -0.9225102 0.4586 -0.09115196
v -1.103507 0.4548654 0.03271747
v -1.111894 0.4548654 0.01819024
v -1.102768 0.4568593 0.05147375
v -1.127769 0.4568593 0.008172583
v -1.101266 0.4645247 0.03142336
v -1.103507 0.4548654 0.03271747
v -1.100365 0.4579868 0.05008627
v -1.102768 0.4568593 0.05147375
v -1.111894 0.4548654 0.01819024
v -1.109653 0.4645247 0.01689613
v -1.127769 0.4568593 0.008172583
v -1.125365 0.4579868 0.006785111
v -1.109653 0.4645247 0.01689613
v -1.101266 0.4645247 0.03142336
v -1.125365 0.4579868 0.006785111
v -1.100365 0.4579868 0.05008627
v -1.102768 0.4568593 0.05147375
v -1.127769 0.4568593 0.008172583
v -1.155184 0.4651979 0.08173655
v -1.180185 0.4651979 0.03843538
v -1.100365 0.4579868 0.05008627
v -1.102768 0.4568593 0.05147375
v -1.152781 0.4663254 0.08034907
v -1.155184 0.4651979 0.08173655
v -1.127769 0.4568593 0.008172583
v -1.125365 0.4579868 0.006785111
v -1.180185 0.4651979 0.03843538
v -1.177781 0.4663254 0.03704791
v -1.125365 0.4579868 0.006785111
v -1.100365 0.4579868 0.05008627
v -1.177781 0.4663254 0.03704791
v -1.152781 0.4663254 0.08034907

vn -0.5000043 0 -0.8660231
vn -0.5000043 0 -0.8660231
vn -0.5000043 0 -0.8660231
vn -0.5000043 0 -0.8660231
vn 0.8660231 0 -0.5000043
vn 0.8660231 0 -0.5000043
vn 0.8660231 0 -0.5000043
vn 0.8660231 0 -0.5000043
vn 0.5000043 0 0.8660231
vn 0.5000043 0 0.8660231
vn 0.5000043 0 0.8660231
vn 0.5000043 0 0.8660231
vn -0.325993 0.926447 0.1882143
vn -0.325993 0.926447 0.1882143
vn -0.325993 0.926447 0.1882143
vn -0.325993 0.926447 0.1882143
vn -0.01632933 0.9998222 0.009427847
vn -0.01632933 0.9998222 0.009427847
vn -0.01632933 0.9998222 0.009427847
vn -0.01632933 0.9998222 0.009427847
vn 0.0147875 -0.9998542 -0.008537666
vn 0.0147875 -0.9998542 -0.008537666
vn 0.0147875 -0.9998542 -0.008537666
vn 0.0147875 -0.9998542 -0.008537666
vn -0.1926513 -0.9749429 0.1112286
vn -0.1926513 -0.9749429 0.1112286
vn -0.1926514 -0.974943 0.1112286
vn -0.1926513 -0.9749429 0.1112286
vn 0.9064596 -0.4126318 -0.08981164
vn 0.9736018 -0.2278164 -0.01412313
vn 0.2371436 -0.9132178 -0.3313552
vn 0.9064596 -0.4126318 -0.08981164
vn 0.5310017 -0.4126318 -0.7401165
vn 0.5940749 -0.2406891 -0.7675571
vn 0.1637431 -0.8851024 -0.4356398
vn 0.5310017 -0.4126318 -0.7401165
vn -0.525979 0.7944344 0.3036776
vn -0.525979 0.7944344 0.3036775
vn -0.525979 0.7944344 0.3036775
vn -0.525979 0.7944344 0.3036776
vn -0.1181968 -0.9906425 0.06824174
vn -0.1181968 -0.9906425 0.06824174
vn -0.1181968 -0.9906425 0.06824174
vn -0.1181968 -0.9906425 0.06824174
vn 0.5000043 0 0.8660231
vn 0.5000043 0 0.8660231
vn 0.5000042 0 0.866023
vn 0.5000043 0 0.8660231
vn -0.5000043 0 -0.8660231
vn -0.5000043 0 -0.8660231
vn -0.5000042 0 -0.866023
vn -0.5000043 0 -0.8660231
vn 0.1181968 0.9906425 -0.06824174
vn 0.1181968 0.9906425 -0.06824174
vn 0.1181968 0.9906425 -0.06824174
vn 0.1181968 0.9906425 -0.06824174

vt 0.001808196 -0.003734589
vt -0.2168743 0
vt -0.0007800013 0.005924702
vt -0.2168743 0.01
vt -0.01661268 0
vt -0.03338733 0
vt -0.01661268 0.01
vt -0.03338733 0.01
vt 0.2168743 0
vt -0.001808196 -0.003734589
vt 0.2168743 0.01
vt 0.0007800013 0.005924702
vt -0.06336064 -0.05000001
vt -0.06336064 0
vt -0.06036541 -0.05000001
vt -0.06036541 0
vt 0.0008915761 -0.01661268
vt 0.2170243 -0.01661268
vt 0.0008915761 -0.03338733
vt 0.2170243 -0.03338733
vt 0.001871701 -0.03338733
vt -0.2168427 -0.03338733
vt 0.001871701 -0.01661268
vt -0.2168427 -0.01661268
vt 0.0009321094 -0.03338733
vt 0.0009321094 -0.01661268
vt 0.009895239 -0.05000001
vt 0.009895239 0
vt -0.03060352 0.008968446
vt -0.03158398 -0.0009834063
vt -0.04921767 0.002232511
vt -0.05026886 0.0005200588
vt -0.01362463 -0.00584068
vt -0.0148861 0.00407947
vt 0.005140378 -0.003792938
vt 0.003787908 -0.002143101
vt 0.004218027 -0.01661268
vt 0.004218027 -0.03338733
vt -0.006546632 0
vt -0.006546632 -0.05000001
vt 0.01021047 -0.05000001
vt 0.01021047 0
vt 0.07130727 -0.05000001
vt 0.07130727 0
vt -0.007771814 -0.0006132126
vt -0.01054674 -0.001740694
vt -0.06829689 0.007725418
vt -0.07107182 0.006597936
vt 0.01054674 -0.001740694
vt 0.007771814 -0.0006132126
vt 0.07107182 0.006597936
vt 0.06829689 0.007725418
vt -0.007615397 0
vt -0.007615397 -0.05000001
vt -0.06871219 0
vt -0.06871219 -0.05000001

g Spatula
usemtl Default_Prototype
f 3/3/3 4/4/4 2/2/2 1/1/1
f 7/7/7 8/8/8 6/6/6 5/5/5
f 11/11/11 12/12/12 10/10/10 9/9/9
f 15/15/15 16/16/16 14/14/14 13/13/13
f 19/19/19 20/20/20 18/18/18 17/17/17
f 23/23/23 24/24/24 22/22/22 21/21/21
f 27/27/27 28/28/28 26/26/26 25/25/25
f 31/31/31 32/32/32 30/30/30 29/29/29
f 35/35/35 36/36/36 34/34/34 33/33/33
f 39/39/39 40/40/40 38/38/38 37/37/37
f 43/43/43 44/44/44 42/42/42 41/41/41
f 47/47/47 48/48/48 46/46/46 45/45/45
f 51/51/51 52/52/52 50/50/50 49/49/49
f 55/55/55 56/56/56 54/54/54 53/53/53

