# Exported from ProBuilder
# http://www.procore3d.com/probuilder
# 3/16/2018 9:18:17 PM

mtllib ./Stove.mtl
o Stove

g Stove
v -0.855 -0.433 0.8849999
v -1.236001 -0.433 0.2250889
v -0.855 0.4814 0.8849999
v -1.236001 0.4814 0.2250889
v -1.236001 -0.433 0.2250889
v -0.8029882 -0.433 -0.02491152
v -1.236001 0.4814 0.2250889
v -0.8029882 0.4814 -0.02491152
v -0.8029882 -0.433 -0.02491152
v -0.4219875 -0.433 0.6349995
v -0.8029882 0.4814 -0.02491152
v -0.4219875 0.4814 0.6349995
v -0.4219875 -0.433 0.6349995
v -0.855 -0.433 0.8849999
v -0.4219875 0.4814 0.6349995
v -0.855 0.4814 0.8849999
v -0.8531606 0.4565575 0.8528201
v -1.207212 0.4565575 0.2395857
v -0.4507759 0.4565575 0.6205027
v -0.8048277 0.4565575 0.007268353
v -0.4219875 -0.433 0.6349995
v -0.8029882 -0.433 -0.02491152
v -0.855 -0.433 0.8849999
v -1.236001 -0.433 0.2250889
v -0.855 0.4814 0.8849999
v -1.236001 0.4814 0.2250889
v -0.8531606 0.4565575 0.8528201
v -1.207212 0.4565575 0.2395857
v -0.4219875 0.4814 0.6349995
v -0.855 0.4814 0.8849999
v -0.4507759 0.4565575 0.6205027
v -0.8531606 0.4565575 0.8528201
v -1.236001 0.4814 0.2250889
v -0.8029882 0.4814 -0.02491152
v -1.207212 0.4565575 0.2395857
v -0.8048277 0.4565575 0.007268353
v -0.8029882 0.4814 -0.02491152
v -0.4219875 0.4814 0.6349995
v -0.8048277 0.4565575 0.007268353
v -0.4507759 0.4565575 0.6205027

vn -0.866025 0 0.5000008
vn -0.866025 0 0.5000008
vn -0.866025 0 0.5000008
vn -0.866025 0 0.5000008
vn -0.5000008 0 -0.8660249
vn -0.5000008 0 -0.8660249
vn -0.5000008 0 -0.8660249
vn -0.5000008 0 -0.8660249
vn 0.866025 0 -0.5000008
vn 0.866025 0 -0.5000008
vn 0.866025 0 -0.5000008
vn 0.866025 0 -0.5000008
vn 0.5000008 0 0.8660249
vn 0.5000008 0 0.8660249
vn 0.5000008 0 0.8660249
vn 0.5000008 0 0.8660249
vn 0 1 0
vn 0 1 0
vn 0 1 0
vn 0 1 0
vn 0 -1 0
vn 0 -1 0
vn 0 -1 0
vn 0 -1 0
vn 0.7055406 0.5798988 -0.4073449
vn 0.7055406 0.5798988 -0.4073449
vn 0.7055406 0.5798988 -0.4073449
vn 0.7055406 0.5798988 -0.4073449
vn -0.3388951 0.7352564 -0.5869823
vn -0.3388951 0.7352564 -0.5869823
vn -0.3388951 0.7352565 -0.5869823
vn -0.3388951 0.7352564 -0.5869823
vn 0.3388951 0.7352564 0.5869823
vn 0.3388951 0.7352564 0.5869823
vn 0.3388951 0.7352565 0.5869823
vn 0.3388951 0.7352564 0.5869823
vn -0.7055402 0.5798995 0.4073447
vn -0.7055402 0.5798995 0.4073447
vn -0.7055402 0.5798995 0.4073447
vn -0.7055402 0.5798995 0.4073447

vt 0.381 -0.4572
vt -0.381 -0.4572
vt 0.381 0.4572
vt -0.381 0.4572
vt 0.25 -0.4572
vt -0.25 -0.4572
vt 0.25 0.4572
vt -0.25 0.4572
vt 0.381 -0.4572
vt -0.381 -0.4572
vt 0.381 0.4572
vt -0.381 0.4572
vt 0.25 -0.4572
vt -0.25 -0.4572
vt 0.25 0.4572
vt -0.25 0.4572
vt -0.3540512 0.232317
vt 0.3540512 0.232317
vt -0.3540512 -0.2323169
vt 0.3540512 -0.2323169
vt 0.381 -0.25
vt -0.381 -0.25
vt 0.381 0.25
vt -0.381 0.25
vt -0.381 0.5174503
vt 0.381 0.5174503
vt -0.3540512 0.4869571
vt 0.3540512 0.4869571
vt -0.5900179 -0.25
vt -0.5900179 0.25
vt -0.5533656 -0.2323169
vt -0.5533656 0.232317
vt 0.5900179 0.25
vt 0.5900179 -0.25
vt 0.5533656 0.232317
vt 0.5533656 -0.2323169
vt -0.381 0.5174502
vt 0.381 0.5174502
vt -0.3540512 0.486957
vt 0.3540512 0.486957

g Stove
usemtl Default_Prototype
f 3/3/3 4/4/4 2/2/2 1/1/1
f 7/7/7 8/8/8 6/6/6 5/5/5
f 11/11/11 12/12/12 10/10/10 9/9/9
f 15/15/15 16/16/16 14/14/14 13/13/13
f 19/19/19 20/20/20 18/18/18 17/17/17
f 23/23/23 24/24/24 22/22/22 21/21/21
f 27/27/27 28/28/28 26/26/26 25/25/25
f 31/31/31 32/32/32 30/30/30 29/29/29
f 35/35/35 36/36/36 34/34/34 33/33/33
f 39/39/39 40/40/40 38/38/38 37/37/37

